<?xml version="1.0" encoding="UTF-8" standalone="no"?>
<!DOCTYPE svg PUBLIC "-//W3C//DTD SVG 1.1//EN" "http://www.w3.org/Graphics/SVG/1.1/DTD/svg11.dtd">
<svg width="100%" height="100%" viewBox="0 0 1024 1024" version="1.1" xmlns="http://www.w3.org/2000/svg" xmlns:xlink="http://www.w3.org/1999/xlink" xml:space="preserve" xmlns:serif="http://www.serif.com/" style="fill-rule:evenodd;clip-rule:evenodd;stroke-linejoin:round;stroke-miterlimit:2;">
    <g transform="matrix(0.948148,0,0,0.948148,0,0)">
        <path d="M1080,855C1080,730.819 979.181,630 855,630L225,630C100.819,630 0,730.819 0,855C0,979.181 100.819,1080 225,1080L855,1080C979.181,1080 1080,979.181 1080,855Z" style="fill:rgb(38,40,49);"/>
    </g>
    <g transform="matrix(0.948148,0,0,0.948148,0,0)">
        <path d="M995.37,225C995.37,100.819 894.551,0 770.37,0L309.63,0C185.449,0 84.63,100.819 84.63,225C84.63,349.181 185.449,450 309.63,450L770.37,450C894.551,450 995.37,349.181 995.37,225Z" style="fill:url(#_Linear1);"/>
    </g>
    <defs>
        <linearGradient id="_Linear1" x1="0" y1="0" x2="1" y2="0" gradientUnits="userSpaceOnUse" gradientTransform="matrix(910.74,0,0,450,84.6299,225)"><stop offset="0" style="stop-color:rgb(165,129,205);stop-opacity:1"/><stop offset="1" style="stop-color:rgb(131,145,212);stop-opacity:1"/></linearGradient>
    </defs>
</svg>
