<svg id="Capa_1" enable-background="new 0 0 512 512" height="512" viewBox="0 0 512 512" width="512" xmlns="http://www.w3.org/2000/svg"><g><path d="m292.386 512c-68.38 0-132.667-26.629-181.02-74.98-48.351-48.353-74.98-112.64-74.98-181.02s26.629-132.667 74.98-181.02c48.353-48.351 112.64-74.98 181.02-74.98 29.57 0 58.562 5.005 86.169 14.876 26.672 9.537 51.46 23.388 73.675 41.168l23.385 18.716-28.994 7.515c-79.069 20.494-134.292 91.932-134.292 173.725 0 81.792 55.223 153.23 134.291 173.725l28.994 7.515-23.385 18.716c-22.215 17.78-47.003 31.631-73.675 41.168-27.607 9.871-56.598 14.876-86.168 14.876zm0-482c-60.367 0-117.12 23.508-159.806 66.194s-66.194 99.439-66.194 159.806 23.508 117.12 66.194 159.806 99.439 66.194 159.806 66.194c42.246 0 82.447-11.345 117.754-33.036-76.548-32.319-127.811-107.839-127.811-192.964 0-85.126 51.263-160.646 127.811-192.964-35.307-21.691-75.508-33.036-117.754-33.036z"/></g></svg>